PathFileType	4	(X/Y/Z)	D:\Share\Shared_Data\Ergonomics\Sit To Stand Pertubation\S2\Perturbed.trc
DataRate	CameraRate	NumFrames	NumMarkers	Units	OrigDataRate	OrigDataStartFrame	OrigNumFrames	
100	100	9	18	m	100	13471	241
Frame#	Time	R_Toe			R_ASIS			R_Pelvis			V_Sacral			L_Pelvis			L_ASIS			Clavical			R_Acromium			L_Acromium			Sternum			Torso			R_Thigh_Med			R_Thigh_Lat			R_Thigh			R_Shank_Med			R_Shank_Lat			R_Shank			R_Heel			
		X1	Y1	Z1	X2	Y2	Z2	X3	Y3	Z3	X4	Y4	Z4	X5	Y5	Z5	X6	Y6	Z6	X7	Y7	Z7	X8	Y8	Z8	X9	Y9	Z9	X10	Y10	Z10	X11	Y11	Z11	X12	Y12	Z12	X13	Y13	Z13	X14	Y14	Z14	X15	Y15	Z15	X16	Y16	Z16	X17	Y17	Z17	X18	Y18	Z18	

13471	134.7	0.42855963	0.071515999	0.14606445	0.092891785	0.68553851	0.13856815	0.025165854	0.72414056	0.18131763	-0.12556639	0.7209809	0.026993706	-0.0062794762	0.73825476	-0.15160692	0.087802094	0.71028955	-0.12502292	0.40212537	0.91031781	0.0014081407	0.36033423	1.0099708	0.20152759	0.35103555	1.010275	-0.18270116	0.31558521	0.77079883	0.0070814457	0.37674918	0.88168011	-0.10418298	0.41159296	0.48895853	0.14031808	0.38070599	0.49867767	0.24263939	0.25386053	0.64560553	0.19268088	0.29495493	0.11293015	0.11345172	0.27218854	0.095668526	0.20546024	0.35149609	0.347617	0.24962444	0.19027037	0.058304363	0.14733194
13472	134.71	0.42857495	0.07148159	0.14589558	0.096910454	0.69070459	0.138845	0.02978392	0.72998132	0.18208234	-0.12145428	0.7278183	0.028091938	-0.0027570751	0.74413721	-0.15091524	0.091140358	0.7154212	-0.12456652	0.40505576	0.91784235	0.0015420178	0.36333844	1.0166745	0.20187531	0.35323611	1.0176677	-0.18247849	0.31898267	0.77786646	0.0071410956	0.37964423	0.88903992	-0.10409975	0.41377283	0.48815887	0.13878514	0.38357071	0.49837656	0.2412122	0.25873529	0.64721051	0.19210446	0.29494623	0.11286359	0.11337206	0.27231567	0.09568885	0.20549303	0.35325131	0.34753128	0.24871693	0.19023528	0.058283325	0.14738687
13473	134.72	0.42857651	0.07145652	0.14572112	0.10076357	0.695992	0.13910007	0.034250519	0.73596545	0.18283498	-0.11743383	0.73489996	0.029137815	0.00066845983	0.75024115	-0.15025653	0.09436972	0.7207298	-0.12412341	0.40789087	0.92555212	0.0016195027	0.36625211	1.0236879	0.20222304	0.35530618	1.0253345	-0.1822346	0.32223187	0.78522955	0.007214951	0.38243582	0.89667114	-0.10399867	0.41567767	0.48742264	0.13734502	0.38614722	0.49810593	0.23985255	0.26341177	0.6488457	0.19160898	0.29492224	0.11279814	0.11329051	0.27241321	0.095696976	0.20551384	0.35480109	0.34747293	0.24786034	0.19019974	0.058261978	0.14743919
13474	134.73	0.42856885	0.07143679	0.14554538	0.1044769	0.70137561	0.13933916	0.038590855	0.74206317	0.18358034	-0.11348917	0.74219287	0.030136795	0.0040222049	0.7565498	-0.1496246	0.097512482	0.72620264	-0.12368923	0.41062305	0.93346564	0.0016604383	0.36906537	1.0309983	0.20256967	0.35723346	1.0332539	-0.1819727	0.32535248	0.79287128	0.0072942672	0.38511356	0.90456238	-0.10389702	0.41732315	0.48674539	0.13599908	0.38845154	0.49786496	0.23856029	0.26789957	0.65049908	0.19118523	0.29488937	0.11273194	0.11320344	0.27248669	0.095701202	0.20551965	0.35616217	0.34744016	0.24705534	0.19016472	0.058241241	0.1474857
13475	134.74	0.4285546	0.071424194	0.14537579	0.10808175	0.70683978	0.13957176	0.042832451	0.74825476	0.18432286	-0.10960177	0.74966644	0.031096167	0.0073266854	0.76304382	-0.14901118	0.10059042	0.73182654	-0.12325932	0.41324722	0.94160089	0.0016822853	0.37177029	1.0385886	0.20291742	0.35900256	1.0414039	-0.18169812	0.32836435	0.80077557	0.0073721704	0.38766776	0.91270203	-0.10381111	0.41872519	0.48612286	0.13474623	0.39050162	0.49765332	0.23733463	0.27221457	0.65216583	0.19082611	0.29485165	0.11266411	0.11310986	0.27254105	0.095706123	0.20551035	0.3573526	0.34743115	0.24630232	0.1901306	0.05822094	0.14752458
13476	134.75	0.42853287	0.071426598	0.14521896	0.11161147	0.71237976	0.13981026	0.047000439	0.75453119	0.18506416	-0.10575255	0.7572934	0.032021965	0.010599118	0.7696991	-0.14840776	0.10362214	0.73758569	-0.12283023	0.41576178	0.94997101	0.0016982189	0.37436099	1.0464377	0.20326976	0.36060022	1.0497638	-0.18141502	0.33128351	0.8089267	0.0074449854	0.39009122	0.92107751	-0.10375322	0.41990323	0.4855531	0.13358356	0.39231659	0.49747122	0.23617422	0.27637823	0.65384735	0.19052753	0.29480951	0.11259499	0.11301203	0.27257925	0.095712509	0.20548936	0.35839044	0.34744543	0.24560162	0.19009706	0.058199791	0.14755585
13477	134.76	0.42850049	0.071455627	0.14507826	0.11509895	0.71799646	0.1400696	0.051115227	0.76088818	0.1858035	-0.10192458	0.76504736	0.032918663	0.01385015	0.77648792	-0.14780779	0.10662119	0.74346021	-0.12240044	0.41816821	0.95858203	0.0017171576	0.37683365	1.0545209	0.20362982	0.36202032	1.0583175	-0.18112495	0.33412378	0.81730859	0.0075126305	0.3923804	0.92967523	-0.10372945	0.42088406	0.4850383	0.13250858	0.39391672	0.49731909	0.23507736	0.2804137	0.65554773	0.19028549	0.29475967	0.11252594	0.11291502	0.2726022	0.095718437	0.20546297	0.35929163	0.34748422	0.24495282	0.190063	0.058176304	0.14758121
13478	134.77	0.42845483	0.071522224	0.14495374	0.11857504	0.72369434	0.14036678	0.055191124	0.76732007	0.18653952	-0.098105354	0.77289948	0.033791328	0.017083525	0.78337927	-0.14720908	0.10959503	0.74942743	-0.12197003	0.42047092	0.96743262	0.0017445173	0.37918597	1.0628119	0.20399918	0.36326624	1.0670543	-0.18082835	0.33689883	0.82590497	0.0075779428	0.39453613	0.93848059	-0.10373891	0.42170029	0.48458344	0.13151978	0.39532245	0.49719766	0.23404205	0.28434009	0.65726758	0.19009396	0.29469751	0.11245895	0.11282537	0.27261017	0.095720856	0.20543832	0.36006863	0.34754959	0.24435339	0.19002684	0.058149948	0.14760368
13479	134.78	0.42839606	0.071632507	0.14484334	0.12206715	0.72948114	0.14071909	0.059235931	0.77381793	0.18727077	-0.094288002	0.78081512	0.034647335	0.020297087	0.79034076	-0.14661548	0.11254551	0.75546454	-0.12154068	0.42267535	0.97651404	0.001782969	0.38141675	1.0712858	0.20437796	0.36435092	1.0759672	-0.18052679	0.33962244	0.83469788	0.0076448827	0.39656329	0.94747894	-0.10377414	0.42238153	0.48419122	0.13061421	0.3965538	0.49710757	0.23306606	0.2881702	0.65900055	0.1899446	0.29462006	0.11239618	0.11274902	0.2726041	0.095717148	0.20542126	0.36072998	0.34764185	0.24379886	0.18998738	0.058121613	0.14762714
